<svg width="32" height="32" xmlns="http://www.w3.org/2000/svg"><g fill="none" fill-rule="evenodd"><path fill="none" d="M0 0h32v32H0z"/><path d="M12.606 20.32v-9.6l8.727 4.985-8.727 4.615zm17.78-14.582c-1.213-1.355-2.573-1.355-3.2-1.44C22.72 3.96 16 4.002 16 4.002s-6.693-.043-11.16.296c-.613.085-1.973.085-3.187 1.44C.693 6.754.373 9.084.373 9.084S.053 11.836 0 14.56v2.851c.053 2.74.373 5.464.373 5.464s.32 2.329 1.28 3.36c1.214 1.34 2.8 1.298 3.52 1.44C7.68 27.942 15.72 28 16 28c0 0 6.733.014 11.2-.325.613-.084 1.973-.084 3.187-1.44.96-1.016 1.28-3.345 1.28-3.345s.32-2.739.333-5.463v-2.852c-.027-2.739-.347-5.491-.347-5.491s-.306-2.33-1.266-3.346z" fill="#1A73E8" fill-rule="nonzero"/></g></svg>