<svg width="32" height="32" xmlns="http://www.w3.org/2000/svg"><g fill="none" fill-rule="evenodd"><path fill="none" d="M1 0h32v32H1z"/><path d="M30.328 4.682L27.672 2 25 4.682 22.328 2l-2.672 2.682L17 2l-2.672 2.682L11.672 2 9 4.682 6.328 2 3.672 4.682 1 2v25.692c0 1.766 1.44 3.211 3.2 3.211h25.6c1.76 0 3.184-1.445 3.184-3.211L33 2l-2.672 2.682zM17 27.692H4.2v-11.24H17v11.24zm12.8 0H18.6v-1.606h11.2v1.606zm0-3.212H18.6v-1.605h11.2v1.605zm0-3.211H18.6v-1.606h11.2v1.606zm0-3.212H18.6v-1.605h11.2v1.605zm0-3.211H4.2v-4.817h25.6v4.817z" fill="#1A73E8" fill-rule="nonzero"/></g></svg>