<svg xmlns="http://www.w3.org/2000/svg" viewBox="198 125 732 469.9" width="732" height="469.9"><defs><clipPath id="a"><path d="M218 479.416h141v56H218z"/></clipPath><clipPath id="b"><path d="M503.5 478.984h151v56h-151z"/></clipPath><clipPath id="c"><path d="M386.333 201.984h108v56h-108z"/></clipPath><clipPath id="d"><path d="M555 201.984h120v56H555z"/></clipPath><clipPath id="e"><path d="M735 201.984h121v56H735z"/></clipPath><clipPath id="f"><path d="M218.5 201.984h108v56h-108z"/></clipPath><clipPath id="g"><path d="M759 478.984h145v56H759z"/></clipPath></defs><g fill="none"><path fill="#fff" d="M218 479.416h141v56H218z"/><path stroke="#dfdfdf" stroke-linecap="round" stroke-linejoin="round" stroke-width="2" clip-path="url(#a)" d="M218 479.416h141v56H218z"/><text transform="translate(269 493.416)" fill="#212121"><tspan font-family="Roboto" font-size="12" font-weight="400" x="0" y="11">Natural</tspan> <tspan font-family="Roboto" font-size="12" font-weight="400" x="0" y="25">Language API</tspan></text><path d="M261.666 506.13l-5.754-10.006c-.461-.8-1.297-1.286-2.158-1.286h-11.508c-.922 0-1.727.54-2.158 1.285l-5.754 9.986a2.51 2.51 0 0 0 0 2.502l5.754 10.052c.46.798 1.297 1.331 2.158 1.331h11.508c.922 0 1.727-.581 2.158-1.326l5.754-10.006a2.566 2.566 0 0 0 0-2.532" fill="#4285f4"/><path d="M261.877 508.168l-7.315-7.315-.406 5.282-2.875-2.875-3.573 1.02-3.427-3.427-1.53 1.532v6.635l-1.313 4.958 6.015 6.016h6.3c.923 0 1.728-.581 2.159-1.326l5.754-10.006c.091-.158.157-.325.21-.494" fill="#000" fill-opacity=".07"/><path fill="#fff" d="M244.719 509.822h6.563v1.75h-6.563zM244.719 506.541h6.563v1.75h-6.563zM244.719 503.26h6.563v1.75h-6.563zM252.813 500.853h-1.094v1.75h1.094v9.625h-1.094v1.75h2.844v-13.125zM241.438 500.853v13.125h2.843v-1.75h-1.093v-9.625h1.093v-1.75h-1.093zM503.5 478.984h151v56h-151z"/><path stroke="#dfdfdf" stroke-linecap="round" stroke-linejoin="round" stroke-width="2" clip-path="url(#b)" d="M503.5 478.984h151v56h-151z"/><text transform="translate(554.5 492.984)" fill="#212121"><tspan font-family="Roboto" font-size="12" font-weight="400" x="0" y="11">AutoML Natural</tspan> <tspan font-family="Roboto" font-size="12" font-weight="400" x="0" y="25">Language</tspan></text><path d="M547.166 505.698l-5.754-10.006c-.461-.8-1.297-1.286-2.158-1.286h-11.508c-.922 0-1.727.54-2.158 1.285l-5.754 9.986a2.51 2.51 0 0 0 0 2.502l5.754 10.052c.46.798 1.297 1.331 2.158 1.331h11.508c.922 0 1.727-.581 2.158-1.326l5.754-10.006a2.566 2.566 0 0 0 0-2.532" fill="#4285f4"/><path d="M547.377 507.736l-7.314-7.315-.407 5.282-2.875-2.875-3.573 1.02-3.427-3.427-1.53 1.532v6.635l-1.313 4.959 6.015 6.015h6.3c.923 0 1.728-.581 2.159-1.326l5.754-10.006c.09-.158.157-.325.21-.494" fill="#000" fill-opacity=".07"/><path fill="#fff" d="M530.219 509.39h6.563v1.75h-6.563zM530.219 506.109h6.563v1.75h-6.563zM530.219 502.828h6.563v1.75h-6.563zM538.313 500.422h-1.094v1.75h1.094v9.625h-1.094v1.75h2.844v-13.125zM526.938 500.422v13.125h2.843v-1.75h-1.093v-9.625h1.093v-1.75h-1.093zM386.333 201.984h108v56h-108z"/><path stroke="#dfdfdf" stroke-linecap="round" stroke-linejoin="round" stroke-width="2" clip-path="url(#c)" d="M386.333 201.984h108v56h-108z"/><text transform="translate(437.333 215.984)" fill="#212121"><tspan font-family="Roboto" font-size="12" font-weight="400" x="0" y="11">Cloud</tspan> <tspan font-family="Roboto" font-size="12" font-weight="400" x="0" y="25">Storage</tspan></text><path d="M430 228.698l-5.755-10.006c-.46-.8-1.297-1.286-2.157-1.286h-11.509c-.921 0-1.727.54-2.157 1.285l-5.754 9.986a2.51 2.51 0 0 0-.001 2.502l5.754 10.052c.461.798 1.298 1.331 2.158 1.331h11.508c.922 0 1.727-.581 2.158-1.326L430 231.23a2.566 2.566 0 0 0 0-2.532" fill="#4285f4"/><path d="M421.034 227.042l-7.914.727-1.533 1.529 1.303 1.304-1.29 2.291 9.67 9.67h.817c.922 0 1.727-.582 2.158-1.326l4.01-6.974z" fill="#000" fill-opacity=".07"/><path d="M419.458 228.725a.543.543 0 0 1 0-1.084.542.542 0 1 1 0 1.084m1.403-1.744h-9.064a.266.266 0 0 0-.265.265v1.874c0 .146.12.265.265.265h9.064c.146 0 .265-.12.265-.265v-1.874a.266.266 0 0 0-.265-.265M419.458 232.327a.541.541 0 1 1-.001-1.085.541.541 0 0 1 0 1.085m1.404-1.744h-9.064a.266.266 0 0 0-.265.266v1.873c0 .146.12.266.265.266h9.064c.146 0 .265-.12.265-.266v-1.874a.266.266 0 0 0-.265-.265" fill="#fff"/><circle cx="391.833" cy="160.984" r="13" fill="#5086ec"/><text transform="translate(388.333 153.984)" fill="#fff"><tspan font-family="Roboto" font-size="12" font-weight="400" x="0" y="11">2</tspan></text><text transform="translate(411.833 149.984)" fill="#212121"><tspan font-family="Roboto" font-size="10" font-weight="400" x="0" y="9">Documents stored </tspan> <tspan font-family="Roboto" font-size="10" font-weight="400" x="0" y="20">on Cloud Storage</tspan></text><path fill="#fff" d="M555 201.984h120v56H555z"/><path stroke="#dfdfdf" stroke-linecap="round" stroke-linejoin="round" stroke-width="2" clip-path="url(#d)" d="M555 201.984h120v56H555z"/><text transform="translate(606 215.984)" fill="#212121"><tspan font-family="Roboto" font-size="12" font-weight="400" x="0" y="11">Cloud</tspan> <tspan font-family="Roboto" font-size="12" font-weight="400" x="0" y="25">Functions</tspan></text><path d="M598.666 228.698l-5.754-10.006c-.461-.8-1.297-1.286-2.158-1.286h-11.508c-.922 0-1.727.54-2.158 1.285l-5.754 9.986a2.51 2.51 0 0 0 0 2.502l5.754 10.052c.46.798 1.297 1.331 2.158 1.331h11.508c.922 0 1.727-.581 2.158-1.326l5.754-10.006a2.566 2.566 0 0 0 0-2.532" fill="#4285f4"/><path d="M591.575 226.763l-.82.82.18 5.16-.755 1.095-.438-.438h.402v-1.795l-1.931-1.932-1.389.694.04.155-4.917-4.917-2.368 1.194-.288 2.419.82 4.427 1.186 1.162-.509.824 6.932 6.931h3.034c.922 0 1.727-.581 2.158-1.325l4.796-8.341z" fill="#000" fill-opacity=".07"/><path d="M580.754 235.576l1.158-1.158-1.735-1.735v-5.397l1.735-1.736-1.158-1.158-2.316 2.317v6.55z" fill="#fff"/><circle cx="582.545" cy="229.984" r=".821" fill="#fff"/><circle cx="585" cy="229.984" r=".821" fill="#fff"/><circle cx="587.455" cy="229.984" r=".821" fill="#fff"/><path d="M589.235 224.392l-1.158 1.158 1.736 1.736v5.397l-1.736 1.735 1.158 1.158 2.317-2.316v-6.551z" fill="#fff"/><circle cx="568" cy="160.984" r="13" fill="#5086ec"/><text transform="translate(564.5 153.984)" fill="#fff"><tspan font-family="Roboto" font-size="12" font-weight="400" x="0" y="11">3</tspan></text><text transform="translate(588 149.984)" fill="#212121"><tspan font-family="Roboto" font-size="10" font-weight="400" x="0" y="9">Cloud Storage event </tspan> <tspan font-family="Roboto" font-size="10" font-weight="400" x="0" y="20">triggers background </tspan> <tspan font-family="Roboto" font-size="10" font-weight="400" x="0" y="31">function</tspan></text><path fill="#fff" d="M735 201.984h121v56H735z"/><path stroke="#dfdfdf" stroke-linecap="round" stroke-linejoin="round" stroke-width="2" clip-path="url(#e)" d="M735 201.984h121v56H735z"/><text transform="translate(786 222.984)" fill="#212121"><tspan font-family="Roboto" font-size="12" font-weight="400" x="0" y="11">Vision API</tspan></text><path d="M778.666 228.698l-5.754-10.006c-.461-.8-1.297-1.286-2.158-1.286h-11.508c-.922 0-1.727.54-2.158 1.285l-5.754 9.986a2.51 2.51 0 0 0 0 2.502l5.754 10.052c.46.798 1.297 1.331 2.158 1.331h11.508c.922 0 1.727-.581 2.158-1.326l5.754-10.006a2.566 2.566 0 0 0 0-2.532" fill="#4285f4"/><path d="M771.563 229.984L765 226.12l-6.562 3.865 12.559 12.56c.819-.092 1.523-.63 1.915-1.308l3.615-6.287z" fill="#000" fill-opacity=".07"/><path d="M760.899 229.984l4.101-2.871 4.102 2.871-4.102 2.871zm4.101-4.922l-6.562 4.922 6.562 4.922 6.563-4.922z" fill="#fff"/><path d="M765.004 228.754a1.23 1.23 0 1 1 0 2.46 1.23 1.23 0 0 1 0-2.46" fill="#fff"/><g><circle cx="748" cy="160.984" r="13" fill="#5086ec"/><text transform="translate(744.5 153.984)" fill="#fff"><tspan font-family="Roboto" font-size="12" font-weight="400" x="0" y="11">4</tspan></text><text transform="translate(768 149.984)" fill="#212121"><tspan font-family="Roboto" font-size="10" font-weight="400" x="0" y="9">Transcribe the </tspan> <tspan font-family="Roboto" font-size="10" font-weight="400" x="0" y="20">documents stored</tspan> <tspan font-family="Roboto" font-size="10" font-weight="400" x="0" y="31">in Cloud Storage</tspan></text></g><g><circle cx="516" cy="304.916" r="13" fill="#5086ec"/><text transform="translate(512.5 297.916)" fill="#fff"><tspan font-family="Roboto" font-size="12" font-weight="400" x="0" y="11">5</tspan></text><text transform="translate(536 294.416)" fill="#212121"><tspan font-family="Roboto" font-size="10" font-weight="400" x="0" y="9">Store transcribed documents </tspan> <tspan font-family="Roboto" font-size="10" font-weight="400" x="0" y="20">on Cloud Storage</tspan></text></g><g><circle cx="231" cy="419.416" r="13" fill="#5086ec"/><text transform="translate(224 412.416)" fill="#fff"><tspan font-family="Roboto" font-size="12" font-weight="400" x=".367" y="11">6a</tspan></text><text transform="translate(251 408.416)" fill="#212121"><tspan font-family="Roboto" font-size="10" font-weight="400" x="0" y="9">Process the transcribed documents </tspan> <tspan font-family="Roboto" font-size="10" font-weight="400" x="0" y="20">using the Natural Language API for </tspan> <tspan font-family="Roboto" font-size="10" font-weight="400" x="0" y="31">entity extraction, categorization, </tspan> <tspan font-family="Roboto" font-size="10" font-weight="400" x="0" y="42">syntax, and sentiment analysis</tspan></text></g><g><circle cx="516.5" cy="419.416" r="13" fill="#5086ec"/><text transform="translate(509.5 412.416)" fill="#fff"><tspan font-family="Roboto" font-size="12" font-weight="400" x=".265" y="11">6b</tspan></text><text transform="translate(536.5 408.416)" fill="#212121"><tspan font-family="Roboto" font-size="10" font-weight="400" x="0" y="9">AutoML Natural Language </tspan> <tspan font-family="Roboto" font-size="10" font-weight="400" x="0" y="20">classifies the transcribed </tspan> <tspan font-family="Roboto" font-size="10" font-weight="400" x="0" y="31">documents using your own </tspan> <tspan font-family="Roboto" font-size="10" font-weight="400" x="0" y="42">custom labels</tspan></text></g><g><circle cx="772" cy="419.416" r="13" fill="#5086ec"/><text transform="translate(768.5 412.416)" fill="#fff"><tspan font-family="Roboto" font-size="12" font-weight="400" x="0" y="11">7</tspan></text><text transform="translate(792 408.416)" fill="#212121"><tspan font-family="Roboto" font-size="10" font-weight="400" x="0" y="9">Access data quickly </tspan> <tspan font-family="Roboto" font-size="10" font-weight="400" x="0" y="20">with improved document </tspan> <tspan font-family="Roboto" font-size="10" font-weight="400" x="0" y="31">search capabilities</tspan></text></g><g><circle cx="231" cy="160.984" r="13" fill="#5086ec"/><text transform="translate(227.5 153.984)" fill="#fff"><tspan font-family="Roboto" font-size="12" font-weight="400" x="0" y="11">1</tspan></text><text transform="translate(251 149.984)" fill="#212121"><tspan font-family="Roboto" font-size="10" font-weight="400" x="0" y="9">Upload PDF and </tspan> <tspan font-family="Roboto" font-size="10" font-weight="400" x="0" y="20">TIFF documents</tspan></text></g><g><path fill="#fff" d="M218.5 201.984h108v56h-108z"/><path stroke="#dfdfdf" stroke-linecap="round" stroke-linejoin="round" stroke-width="2" clip-path="url(#f)" d="M218.5 201.984h108v56h-108z"/><path d="M238.194 210.984v38h27.58v-33.097l-4.903-4.903z" stroke="#666" stroke-linecap="round" stroke-linejoin="round"/><path fill="#666" d="M233.903 218.952h27.581v12.871h-27.581z"/><path d="M233.903 218.952h27.581v12.871h-27.581z"/><path d="M240.038 225.792v2.047h-.643v-5.229h1.798c.534 0 .952.146 1.254.438.303.292.454.679.454 1.16 0 .508-.148.899-.444 1.173-.295.274-.719.41-1.27.41zm0-.564h1.155c.344 0 .608-.087.79-.26.184-.174.275-.425.275-.753 0-.31-.091-.56-.274-.747-.183-.186-.435-.283-.754-.29h-1.192zm3.997 2.611v-5.229h1.324c.408 0 .769.1 1.082.302.314.2.556.487.727.858.17.371.257.797.26 1.279v.334c0 .493-.086.925-.257 1.296-.17.371-.414.656-.731.855-.317.198-.686.3-1.107.305zm.619-4.661v4.097h.65c.477 0 .848-.165 1.113-.495.266-.33.398-.801.398-1.412v-.305c0-.594-.125-1.055-.375-1.384-.25-.33-.605-.497-1.065-.501zm7.088 2.352h-2.194v2.309h-.69v-5.229h3.24v.568h-2.55v1.788h2.194z" fill="#fff"/><path d="M283.516 210.984v38h27.58v-33.097l-4.902-4.903z" stroke="#666" stroke-linecap="round" stroke-linejoin="round"/><path fill="#666" d="M279.226 218.952h27.581v12.871h-27.581z"/><path d="M279.226 218.952h27.581v12.871h-27.581z"/><path d="M288.122 223.178h-1.68v4.66h-.686v-4.66h-1.677v-.568h4.043zm.826-.568h.69v5.229h-.69zm4.834 2.92h-2.194v2.309h-.69v-5.229h3.24v.568h-2.55v1.788h2.194zm4.066 0h-2.195v2.309h-.69v-5.229h3.24v.568h-2.55v1.788h2.195z" fill="#fff"/></g><g><path fill="#fff" d="M759 478.984h145v56H759z"/><path stroke="#dfdfdf" stroke-linecap="round" stroke-linejoin="round" stroke-width="2" clip-path="url(#g)" d="M759 478.984h145v56H759z"/><text transform="translate(800 499.984)" fill="#212121"><tspan font-family="Roboto" font-size="12" font-weight="400" x="0" y="11">Your Application</tspan></text><path d="M791.2 498.784h-14.4c-.99 0-1.8.81-1.8 1.8v10.8c0 .99.81 1.8 1.8 1.8h14.4c.99 0 1.8-.81 1.8-1.8v-10.8c0-.99-.81-1.8-1.8-1.8zm-4.5 12.6h-9.9v-3.6h9.9zm0-4.5h-9.9v-3.6h9.9zm4.5 4.5h-3.6v-8.1h3.6z" fill="#616161"/></g><g><path d="M749.1 506.484h-84.7a.5.5 0 1 0 0 1h84.7a.5.5 0 0 0 0-1zm-92.7 1h8v-1h-8zm4.354 3.147l-4-4v.707l4-4-.708-.707-4 4-.353.353.353.354 4 4zm96.346-4.147h-8v1h8zm-4.354-3.146l4 4v-.707l-4 4 .708.707 4-4 .353-.354-.353-.353-4-4z" fill="#616161"/></g><g><path d="M454 328.916h455a.5.5 0 0 0 0-1H454a.5.5 0 0 0 0 1z" fill="#616161"/></g><g><path d="M454.5 328.416v-60.532a.5.5 0 0 0-1 0v60.532a.5.5 0 0 0 1 0zm-1-68.532v8h1v-8zm-3.146 4.354l4-4h-.708l4 4 .708-.707-4-4-.354-.354-.354.354-4 4z" fill="#616161"/></g><g><path d="M493.6 506.484H440l.5.5v-15.568l.299-223.531a.5.5 0 1 0-1-.002l-.299 223.532v15.57a.5.5 0 0 0 .5.5h53.6a.5.5 0 0 0 0-1zm-53.79-246.6l-.011 8h1l.01-8zm-3.153 4.349l4.005-3.995h-.707l3.995 4.005.708-.707-3.995-4.005-.353-.354-.354.353-4.005 3.995zM501.6 506.484h-8v1h8zm-4.354-3.146l4 4v-.707l-4 4 .708.707 4-4 .353-.354-.353-.353-4-4z" fill="#616161"/></g><g><path d="M368.9 507.916H427a.5.5 0 0 0 .5-.5V267.884a.5.5 0 0 0-1 0v239.532l.5-.5h-58.1a.5.5 0 1 0 0 1zm57.6-248.032v8h1v-8zm-3.146 4.354l4-4h-.708l4 4 .708-.707-4-4-.354-.354-.354.354-4 4zM360.9 507.916h8v-1h-8zm4.354 3.146l-4-4v.707l4-4-.708-.707-4 4-.353.354.353.353 4 4z" fill="#616161"/></g><g><path d="M494.333 230.484H545.1a.5.5 0 0 0 0-1h-50.767a.5.5 0 0 0 0 1zm58.767-1h-8v1h8zm-4.354-3.146l4 4v-.707l-4 4 .708.707 4-4 .353-.354-.353-.353-4-4z" fill="#616161"/></g><g><path d="M326.5 230.484h49.933a.5.5 0 1 0 0-1H326.5a.5.5 0 0 0 0 1zm57.933-1h-8v1h8zm-4.353-3.146l4 4v-.707l-4 4 .707.707 4-4 .353-.354-.353-.353-4-4z" fill="#616161"/></g><g><path d="M675 230.484h50.1a.5.5 0 0 0 0-1H675a.5.5 0 0 0 0 1zm58.1-1h-8v1h8zm-4.354-3.146l4 4v-.707l-4 4 .708.707 4-4 .353-.354-.353-.353-4-4z" fill="#616161"/></g><g><path d="M333.5 545.316v29.1a.5.5 0 0 0 .5.5h503a.5.5 0 0 0 .5-.5v-29.532a.5.5 0 0 0-1 0v29.532l.5-.5H334l.5.5v-29.1a.5.5 0 1 0-1 0zm503-8.432v8h1v-8zm-3.146 4.354l4-4h-.708l4 4 .708-.707-4-4-.354-.354-.354.354-4 4zM333.5 537.316v8h1v-8zm-3.146 4.353l4-4h-.708l4 4 .708-.707-4-4-.354-.353-.354.353-4 4z" fill="#616161"/></g><g><path d="M856 231.484h53a.5.5 0 0 0 0-1h-53a.5.5 0 0 0 0 1z" fill="#616161"/></g><g><path d="M909.5 328.416v-97a.5.5 0 0 0-1 0v97a.5.5 0 0 0 1 0z" fill="#616161"/></g></g></svg>