<svg height="350" viewBox="198 125 900 350" width="900" xmlns="http://www.w3.org/2000/svg" xmlns:xlink="http://www.w3.org/1999/xlink"><clipPath id="a"><path d="m732.525 208.716h127v56h-127z"/></clipPath><clipPath id="b"><path d="m384.858 208.284h108v56h-108z"/></clipPath><clipPath id="c"><path d="m612.025 399h121v56h-121z"/></clipPath><clipPath id="d"><path d="m552.525 208.284h120v56h-120z"/></clipPath><clipPath id="e"><path d="m858.025 399h120v56h-120z"/></clipPath><clipPath id="f"><path d="m218.025 208.284h108v56h-108z"/></clipPath><marker id="g" markerHeight="10" markerWidth="10" orient="auto" overflow="visible" stroke-miterlimit="10" viewBox="-1 -5 10 10"><path d="m8 0h-8m4-4 4 4-4 4" fill="none" stroke="#616161"/></marker><marker id="h" markerHeight="10" markerWidth="10" orient="auto" overflow="visible" stroke-miterlimit="10" viewBox="-9 -5 10 10"><path d="m-8 0h8m-4 4-4-4 4-4" fill="none" stroke="#616161"/></marker><g fill="none"><path d="m732.525 208.716h127v56h-127z" fill="#fff"/><path clip-path="url(#a)" d="m732.525 208.716h127v56h-127z" stroke="#dfdfdf" stroke-linecap="round" stroke-linejoin="round" stroke-width="2"/><text fill="#212121" transform="translate(783.525 229.716)"><tspan font-family="Roboto" font-size="12" font-weight="400" x="0" y="11">App Engine</tspan></text><path d="m776.191 235.43-5.754-10.006c-.461-.8-1.297-1.286-2.158-1.286h-11.508c-.922 0-1.727.54-2.158 1.285l-5.754 9.986a2.51 2.51 0 0 0 0 2.502l5.754 10.052c.46.798 1.297 1.331 2.158 1.331h11.508c.922 0 1.727-.581 2.158-1.326l5.754-10.006a2.566 2.566 0 0 0 0-2.532" fill="#4285f4"/><path d="m770.677 236.275-.152-.046-7.632-7.633-1.567 2.29 1.313 1.313-3.34 1.217-1.306 3.321-1.28-1.281-2.309 2.027 11.811 11.811h2.064c.922 0 1.727-.581 2.158-1.326l4.356-7.577z" fill="#000" fill-opacity=".07"/><path d="m762.525 240.542a3.825 3.825 0 1 1 0-7.65 3.825 3.825 0 0 1 0 7.65m0-8.866a5.04 5.04 0 1 0 -.001 10.081 5.04 5.04 0 0 0 0-10.081m7.907 4.444-2.101-.66a5.934 5.934 0 0 1 .068 2.143h2.033c.188-.054.314-.171.314-.344v-.795c0-.173-.126-.292-.314-.345m-7.908-5.342c.422 0 .835.045 1.232.128l-.754-2.094c-.055-.188-.172-.313-.345-.313h-.315c-.173 0-.293.125-.344.313l-.655 2.084a5.968 5.968 0 0 1 1.181-.118m-5.937 5.94c0-.432.046-.853.134-1.258l-2.102.66c-.188.053-.313.172-.313.346v.794c0 .173.125.29.313.344h2.033a5.942 5.942 0 0 1 -.065-.886" fill="#fff"/><path d="m763.34 237.532c-.224.227-.52.338-.815.338a1.153 1.153 0 1 1 0-2.308 1.153 1.153 0 0 1 .816 1.97m.984-2.46-.477.476a1.803 1.803 0 0 0 -1.284-.532c-.486 0-.942.19-1.284.532a1.82 1.82 0 0 0 0 2.569l-.477.476c.451.45 1.074.73 1.76.73a2.494 2.494 0 0 0 2.492-2.492c0-.687-.28-1.308-.73-1.76m-379.467-26.787h108v56h-108z" fill="#fff"/><path clip-path="url(#b)" d="m384.858 208.284h108v56h-108z" stroke="#dfdfdf" stroke-linecap="round" stroke-linejoin="round" stroke-width="2"/><text fill="#212121" transform="translate(435.858 222.284)"><tspan font-family="Roboto" font-size="12" font-weight="400" x="0" y="11">Cloud</tspan> <tspan font-family="Roboto" font-size="12" font-weight="400" x="0" y="25">Storage</tspan></text><path d="m428.525 234.998-5.754-10.006c-.462-.8-1.298-1.286-2.158-1.286h-11.508c-.923 0-1.728.54-2.158 1.285l-5.754 9.986a2.51 2.51 0 0 0 -.001 2.502l5.754 10.052c.461.798 1.298 1.331 2.158 1.331h11.508c.922 0 1.727-.581 2.158-1.326l5.754-10.006a2.566 2.566 0 0 0 0-2.532" fill="#4285f4"/><path d="m419.559 233.342-7.914.727-1.533 1.53 1.303 1.303-1.29 2.291 9.67 9.67h.817c.922 0 1.727-.582 2.158-1.326l4.01-6.974z" fill="#000" fill-opacity=".07"/><path d="m417.983 235.025a.543.543 0 0 1 0-1.084.542.542 0 1 1 0 1.084m1.403-1.744h-9.064a.266.266 0 0 0 -.265.265v1.874c0 .146.12.265.265.265h9.064c.146 0 .265-.12.265-.265v-1.874a.266.266 0 0 0 -.265-.265m-1.403 5.346a.541.541 0 1 1 -.001-1.085.541.541 0 0 1 0 1.085m1.404-1.744h-9.064a.266.266 0 0 0 -.265.266v1.873c0 .146.12.266.265.266h9.064c.146 0 .265-.12.265-.266v-1.874a.266.266 0 0 0 -.265-.265" fill="#fff"/><circle cx="389.358" cy="161" fill="#5086ec" r="13"/><text fill="#fff" transform="translate(385.858 154)"><tspan font-family="Roboto" font-size="12" font-weight="400" x="0" y="11">2</tspan></text><text fill="#212121" transform="translate(409.358 150)"><tspan font-family="Roboto" font-size="10" font-weight="400" x="0" y="9">Images stored on</tspan><tspan font-family="Roboto" font-size="10" font-weight="400" x="0" y="20">Cloud Storage</tspan></text><circle cx="558.025" cy="161" fill="#5086ec" r="13"/><text fill="#fff" transform="translate(554.525 154)"><tspan font-family="Roboto" font-size="12" font-weight="400" x="0" y="11">3</tspan></text><text fill="#212121" transform="translate(578.025 150)"><tspan font-family="Roboto" font-size="10" font-weight="400" x="0" y="9">New image notification</tspan><tspan font-family="Roboto" font-size="10" font-weight="400" x="0" y="20">sent via Cloud Pub/Sub to</tspan><tspan font-family="Roboto" font-size="10" font-weight="400" x="0" y="31">App Engine</tspan></text><path d="m612.025 399h121v56h-121z" fill="#fff"/><path clip-path="url(#c)" d="m612.025 399h121v56h-121z" stroke="#dfdfdf" stroke-linecap="round" stroke-linejoin="round" stroke-width="2"/><text fill="#212121" transform="translate(663.025 420)"><tspan font-family="Roboto" font-size="12" font-weight="400" x="0" y="11">Vision API</tspan></text><path d="m655.691 425.714-5.754-10.006c-.461-.8-1.297-1.286-2.158-1.286h-11.508c-.922 0-1.727.54-2.158 1.285l-5.754 9.986a2.51 2.51 0 0 0 0 2.502l5.754 10.052c.46.798 1.297 1.331 2.158 1.331h11.508c.922 0 1.727-.581 2.158-1.326l5.754-10.006a2.566 2.566 0 0 0 0-2.532" fill="#4285f4"/><path d="m648.588 427-6.563-3.865-6.562 3.865 12.559 12.56c.819-.093 1.523-.63 1.915-1.308l3.615-6.287z" fill="#000" fill-opacity=".07"/><path d="m637.924 427 4.101-2.871 4.102 2.871-4.102 2.871zm4.101-4.922-6.562 4.922 6.562 4.922 6.563-4.922z" fill="#fff"/><path d="m642.029 425.77a1.23 1.23 0 1 1 0 2.46 1.23 1.23 0 0 1 0-2.46" fill="#fff"/><circle cx="740.025" cy="161" fill="#5086ec" r="13"/><text fill="#fff" transform="translate(736.525 154)"><tspan font-family="Roboto" font-size="12" font-weight="400" x="0" y="11">4</tspan></text><text fill="#212121" transform="translate(760.025 150)"><tspan font-family="Roboto" font-size="10" font-weight="400" x="0" y="9">App Engine calls machine</tspan><tspan font-family="Roboto" font-size="10" font-weight="400" x="0" y="20">learning APIs and updates</tspan><tspan font-family="Roboto" font-size="10" font-weight="400" x="0" y="31">search index</tspan></text><circle cx="600.025" cy="340" fill="#5086ec" r="13"/><text fill="#fff" transform="translate(593.025 333)"><tspan font-family="Roboto" font-size="12" font-weight="400" x=".367" y="11">5a</tspan></text><text fill="#212121" transform="translate(620.025 329)"><tspan font-family="Roboto" font-size="10" font-weight="400" x="0" y="9">Vision API detects broad</tspan><tspan font-family="Roboto" font-size="10" font-weight="400" x="0" y="20">objects and scenes from</tspan><tspan font-family="Roboto" font-size="10" font-weight="400" x="0" y="31">images; Label detection makes</tspan><tspan font-family="Roboto" font-size="10" font-weight="400" x="0" y="42">images searchable across</tspan><tspan font-family="Roboto" font-size="10" font-weight="400" x="0" y="53">broad topics and scenes</tspan></text><circle cx="861.025" cy="340" fill="#5086ec" r="13"/><text fill="#fff" transform="translate(854.025 333)"><tspan font-family="Roboto" font-size="12" font-weight="400" x=".265" y="11">5b</tspan></text><text fill="#212121" transform="translate(881.025 329)"><tspan font-family="Roboto" font-size="10" font-weight="400" x="0" y="9">AutoML Vision detects</tspan><tspan font-family="Roboto" font-size="10" font-weight="400" x="0" y="20">custom labels and</tspan><tspan font-family="Roboto" font-size="10" font-weight="400" x="0" y="31">categories from user-</tspan> <tspan font-family="Roboto" font-size="10" font-weight="400" x="0" y="42">trained image models</tspan></text><circle cx="922.25" cy="161" fill="#5086ec" r="13"/><text fill="#fff" transform="translate(918.75 154)"><tspan font-family="Roboto" font-size="12" font-weight="400" x="0" y="11">6</tspan></text><text fill="#212121" transform="translate(942.25 150)"><tspan font-family="Roboto" font-size="10" font-weight="400" x="0" y="9">User searches for images</tspan><tspan font-family="Roboto" font-size="10" font-weight="400" x="0" y="20">using keywords and</tspan><tspan font-family="Roboto" font-size="10" font-weight="400" x="0" y="31">faceted navigation</tspan></text><circle cx="231.025" cy="161" fill="#5086ec" r="13"/><text fill="#fff" transform="translate(227.525 154)"><tspan font-family="Roboto" font-size="12" font-weight="400" x="0" y="11">1</tspan></text><text fill="#212121" transform="translate(251.025 150)"><tspan font-family="Roboto" font-size="10" font-weight="400" x="0" y="9">User uploads</tspan> <tspan font-family="Roboto" font-size="10" font-weight="400" x="0" y="20">images</tspan></text><path d="m552.525 208.284h120v56h-120z" fill="#fff"/><path clip-path="url(#d)" d="m552.525 208.284h120v56h-120z" stroke="#dfdfdf" stroke-linecap="round" stroke-linejoin="round" stroke-width="2"/><text fill="#212121" transform="translate(603.525 222.284)"><tspan font-family="Roboto" font-size="12" font-weight="400" x="0" y="11">Cloud</tspan><tspan font-family="Roboto" font-size="12" font-weight="400" x="0" y="25">Pub/Sub</tspan></text><path d="m596.191 234.998-5.754-10.006c-.461-.8-1.297-1.286-2.158-1.286h-11.508c-.922 0-1.727.54-2.158 1.285l-5.754 9.986a2.51 2.51 0 0 0 0 2.502l5.754 10.052c.46.798 1.297 1.331 2.158 1.331h11.508c.922 0 1.727-.581 2.158-1.326l5.754-10.006a2.566 2.566 0 0 0 0-2.532" fill="#4285f4"/><path d="m588.042 232.728-1.282.266-3.195-3.194-1.021 1.911-.555 2.211.938.939-1.801.368-2.472-2.471-1.678 1.613 3.09 3.089-3.274 2.604 8.799 8.798h2.688c.922 0 1.727-.581 2.158-1.326l4.532-7.881z" fill="#000" fill-opacity=".07"/><g fill="#fff"><path d="m586.65 232.558a1.164 1.164 0 1 1 1.166 2.015 1.164 1.164 0 0 1 -1.166-2.015m-9.415 2.016a1.165 1.165 0 1 1 1.165-2.018 1.165 1.165 0 0 1 -1.165 2.018m6.455 7.146a1.164 1.164 0 1 1 -2.329 0 1.164 1.164 0 0 1 2.329 0m-1.165-7.856c.185 0 .365.023.538.062v-3.078h-1.075v3.078c.173-.04.352-.062.537-.062m2.312 3.134a2.41 2.41 0 0 1 -.54.93l2.666 1.54.538-.932zm-4.624 0-2.664 1.538.538.931 2.666-1.54a2.41 2.41 0 0 1 -.54-.93m4.194-.713a1.881 1.881 0 1 1 -3.762 0 1.881 1.881 0 0 1 3.762 0"/><path d="m577.079 237.72a1.48 1.48 0 1 1 1.477 2.564 1.48 1.48 0 0 1 -1.477-2.563m9.415 2.56a1.479 1.479 0 1 1 1.48-2.558 1.479 1.479 0 0 1 -1.48 2.558m-2.491-9.433a1.479 1.479 0 1 1 -2.957 0 1.479 1.479 0 0 1 2.957 0m274.022 168.152h120v56h-120z"/></g><path clip-path="url(#e)" d="m858.025 399h120v56h-120z" stroke="#dfdfdf" stroke-linecap="round" stroke-linejoin="round" stroke-width="2"/><text fill="#212121" transform="translate(909.025 413)"><tspan font-family="Roboto" font-size="12" font-weight="400" x="0" y="11">AutoML</tspan><tspan font-family="Roboto" font-size="12" font-weight="400" x="0" y="25">Vision</tspan></text><path d="m901.67 425.697-5.76-9.992a2.46 2.46 0 0 0 -2.142-1.283h-11.52c-.896 0-1.713.505-2.141 1.283l-5.76 9.993a2.571 2.571 0 0 0 0 2.488l5.76 10.07a2.578 2.578 0 0 0 2.14 1.322h11.521a2.697 2.697 0 0 0 2.18-1.322l5.76-9.992c.429-.817.429-1.789-.038-2.567z" fill="#4285f4"/><path d="m891.433 421.46-1.596 2.371-1.518-1.827-3.853 4.199-2.92.428 2.881 4.393.545 1.439 4.36 7.076h4.475a2.697 2.697 0 0 0 2.18-1.322l4.087-6.61z" fill="#000" fill-opacity=".07"/><path d="m885.206 429.974h-.234l-.778 1.361.817 1.439h1.79l-.778-1.4.817-1.4zm7.784-5.521-.856 1.478-.818 1.4-1.518 2.643h-1.362l-.817 1.361.817 1.439h2.92l2.335-4.083.895-1.477zm-5.216-3.305h-2.958l-2.374 4.083-.895 1.516v.04l1.596 2.72.895-1.554.817-1.4 1.518-2.644h1.129l.934-1.594zm3.192 2.761h.156l.817-1.322-.856-1.439h-1.713l.74 1.283-.818 1.361-.039.117h.117z" fill="#fff"/><path d="m994.546 212h-17.454c-3.01 0-5.454 2.455-5.454 5.48v37.257c0 3.024 2.443 5.479 5.454 5.479h17.454c3.01 0 5.454-2.455 5.454-5.48v-37.256c0-3.024-2.443-5.479-5.454-5.479zm3.428 42.125h-24.31v-37.05h24.31z" fill="#747474"/><path d="m218.025 208.284h108v56h-108z" fill="#fff"/><path clip-path="url(#f)" d="m218.025 208.284h108v56h-108z" stroke="#dfdfdf" stroke-linecap="round" stroke-linejoin="round" stroke-width="2"/><path d="m271.956 235.244 25.069 11.679v-23.24l-25.069-11.683z" fill="#007ee5"/><path d="m261.703 239.356 23.927 11.68v-23.244l-23.927-11.68z" fill="#1f8eee"/><path d="m275.3 226.349c2.695 1.557 4.873 5.326 4.864 8.424 0 2.877-1.901 4.146-4.316 3.08v3.107l4.167 2.402v1.613l-9.76-5.632v-1.6l4.197 2.415v-3.161c-2.309-1.779-4.057-5.093-4.049-7.869.009-3.09 2.194-4.337 4.898-2.78z" fill="#3362b5"/><path d="m275.377 232.604-23.931-11.683v23.24l23.93 11.683z" fill="#6eb6f4"/><path d="m267.45 233.78c3.607 2.092 6.548 7.163 6.535 11.322-.013 4.16-2.97 5.84-6.578 3.748-3.607-2.093-6.536-7.16-6.536-11.319s2.971-5.84 6.578-3.751m-.038 13.58c2.89 1.672 5.254.327 5.267-2.996a8.275 8.275 0 0 0 -.217-1.85 7.104 7.104 0 0 1 -1.477-.654c-2.206-1.273-4.159-3.662-5.338-6.28a3.344 3.344 0 0 1 -3.43 2.074c-.021.205-.033.41-.033.616 0 3.327 2.338 7.388 5.228 9.056" fill="#3362b5"/><path d="m265.456 239.99c.453.26.822.895.823 1.417 0 .523-.366.736-.82.477-.454-.26-.822-.894-.823-1.417s.366-.736.82-.476zm3.935 2.27c.454.26.822.894.823 1.417s-.366.736-.82.477c-.453-.26-.822-.894-.823-1.417 0-.523.366-.736.82-.476z" fill="#3362b5"/><path d="m267.411 247.343c2.89 1.672 5.254.327 5.267-2.996a8.276 8.276 0 0 0 -.217-1.833 7.104 7.104 0 0 1 -1.477-.654c-2.206-1.273-4.159-3.662-5.338-6.28a3.344 3.344 0 0 1 -3.43 2.074c-.021.205-.033.41-.033.616-.009 3.344 2.338 7.405 5.228 9.073m1.986-5.093c.484.32.786.852.81 1.43 0 .523-.368.73-.822.472a1.812 1.812 0 0 1 -.82-1.418c0-.522.37-.734.824-.47m-4.75-1.804c0-.518.37-.73.824-.467a1.8 1.8 0 0 1 .82 1.417c0 .518-.374.73-.85.467a1.795 1.795 0 0 1 -.814-1.417" fill="#cee5f2"/><path d="m243.794 249.554.076-22.773 23.588 11.442-.078 22.777z" fill="#e1f6fe"/><path d="m258.16 246.89a2.716 2.716 0 0 1 1.239 2.121c0 .79-.56 1.103-1.248.705a2.712 2.712 0 0 1 -1.23-2.122c.003-.786.555-1.1 1.238-.705z" fill="#cee5f2"/><path d="m259.352 240.943 1.698 6.663-.022 7.584c0 .522-.373.734-.827.475l-.824-.475a1.812 1.812 0 0 1 -.819-1.426v-.95l-9.9-5.717v.934c0 .522-.374.734-.824.47l-.832-.47a1.812 1.812 0 0 1 -.819-1.426l.021-7.571 1.732-4.669c.17-.462.628-.602 1.171-.288l9.074 5.228a2.725 2.725 0 0 1 1.171 1.638zm-11.497-1.9 11.552 6.67-1.23-4.982-9.074-5.241zm10.296 10.685c.687.4 1.243.085 1.248-.704a2.716 2.716 0 0 0 -1.24-2.122c-.683-.408-1.235-.094-1.239.704a2.712 2.712 0 0 0 1.231 2.122m-9.074-5.233c.688.395 1.24.081 1.244-.704a2.72 2.72 0 0 0 -1.235-2.122c-.683-.395-1.235-.08-1.24.709a2.72 2.72 0 0 0 1.231 2.122" fill="#3362b5"/><path d="m249.086 241.665a2.72 2.72 0 0 1 1.235 2.122c0 .785-.556 1.099-1.243.704a2.72 2.72 0 0 1 -1.231-2.122c.004-.798.556-1.129 1.239-.704zm.021-6.175 9.074 5.241 1.226 4.982-11.552-6.67z" fill="#cee5f2"/><path d="m492.858 236.784h49.767a.5.5 0 1 0 0-1h-49.767a.5.5 0 1 0 0 1zm57.767-1h-8v1h8zm-4.354-3.146 4 4v-.707l-4 4 .708.707 4-4 .353-.354-.353-.353-4-4zm-220.245 4.009 47.934-.122a.5.5 0 1 0 -.003-1l-47.933.122a.5.5 0 1 0 .002 1zm55.931-1.142-8 .02.003 1 8-.02zm-4.361-3.136 4.01 3.99-.002-.707-3.99 4.01.709.706 3.99-4.01.352-.355-.354-.353-4.01-3.99zm294.262 4.847h50.767a.5.5 0 1 0 0-1h-50.767a.5.5 0 1 0 0 1zm58.767-1h-8v1h8zm-4.354-3.147 4 4v-.707l-4 4 .708.707 4-4 .353-.353-.353-.354-4-4zm86.254 41.547v152.384a.5.5 0 0 0 .5.5h35.1a.5.5 0 1 0 0-1h-35.1l.5.5v-152.384a.5.5 0 1 0 -1 0zm43.6 151.884h-8v1h8zm-4.354-3.146 4 4v-.708l-4 4 .708.708 4-4 .353-.354-.353-.354-4-4zm-39.246-156.738v8h1v-8zm-3.146 4.353 4-4h-.708l4 4 .708-.707-4-4-.354-.353-.353.353-4 4zm-30.854 3.647v152.384l.5-.5h-36.1a.5.5 0 0 0 0 1h36.1a.5.5 0 0 0 .5-.5v-152.384a.5.5 0 1 0 -1 0zm-43.6 152.884h8v-1h-8zm4.354 3.146-4-4v.708l4-4-.708-.708-4 4-.353.354.354.354 4 4zm39.246-164.03v8h1v-8zm-3.146 4.353 4-4h-.708l4 4 .708-.707-4-4-.354-.353-.353.353-4 4z" fill="#616161"/><path d="m869.425 236.48 92.313-.295" marker-end="url(#g)" marker-start="url(#h)" stroke="#616161" stroke-linecap="round" stroke-linejoin="round"/></g></svg>