<svg xmlns="http://www.w3.org/2000/svg" viewBox="198 125 682 212" width="682" height="212"><defs><clipPath id="a"><path d="M222.5 145H357v56H222.5z"/></clipPath><clipPath id="b"><path d="M471.75 145.284h134.5v56h-134.5z"/></clipPath><clipPath id="c"><path d="M703.875 145h134.5v56h-134.5z"/></clipPath></defs><g fill="none"><path fill="#fff" d="M222.5 145H357v56H222.5z"/><path stroke="#dfdfdf" stroke-linecap="round" stroke-linejoin="round" stroke-width="2" clip-path="url(#a)" d="M222.5 145H357v56H222.5z"/><text transform="translate(273.5 159)" fill="#212121"><tspan font-family="Roboto" font-size="12" font-weight="400" x="0" y="11">Cloud</tspan> <tspan font-family="Roboto" font-size="12" font-weight="400" x="0" y="25">Storage</tspan></text><path d="M266.166 171.714l-5.754-10.006c-.461-.8-1.297-1.286-2.158-1.286h-11.508c-.922 0-1.727.54-2.158 1.285l-5.754 9.986a2.51 2.51 0 0 0 0 2.502l5.754 10.052c.46.798 1.297 1.331 2.158 1.331h11.508c.922 0 1.727-.581 2.158-1.326l5.754-10.006a2.566 2.566 0 0 0 0-2.532" fill="#4285f4"/><path d="M257.2 170.058l-7.913.727-1.533 1.529 1.303 1.304-1.29 2.29 9.669 9.67h.818c.922 0 1.727-.581 2.158-1.326l4.01-6.973z" fill="#000" fill-opacity=".07"/><path d="M255.624 171.74a.543.543 0 0 1 0-1.083.542.542 0 1 1 0 1.084m1.404-1.744h-9.064a.266.266 0 0 0-.266.265l.001 1.874c0 .146.12.265.265.265h9.064c.146 0 .265-.12.265-.265v-1.874a.266.266 0 0 0-.265-.265" fill="#fff"/><path d="M255.624 175.343a.541.541 0 1 1-.001-1.085.541.541 0 0 1 .001 1.085m1.404-1.744h-9.064a.266.266 0 0 0-.266.266l.001 1.873c0 .146.12.265.265.265h9.064c.146 0 .265-.12.265-.265v-1.874a.266.266 0 0 0-.265-.266" fill="#fff"/><circle cx="462" cy="243" r="13" fill="#5086ec"/><text transform="translate(458.5 236)" fill="#fff"><tspan font-family="Roboto" font-size="12" font-weight="400" x=".131" y="11">2</tspan></text><g><text transform="translate(490.5 235)" fill="#212121"><tspan font-family="Roboto" font-size="10" font-weight="400" x="0" y="9">Use AutoML Vision Edge to </tspan> <tspan font-family="Roboto" font-size="10" font-weight="400" x="0" y="20">train your custom model to </tspan> <tspan font-family="Roboto" font-size="10" font-weight="400" x="0" y="31">detect product defects.</tspan> <tspan font-family="Roboto" font-size="10" font-weight="400" x="0" y="42">AutoML models are optimized </tspan> <tspan font-family="Roboto" font-size="10" font-weight="400" x="0" y="53">to achieve high accuracy for </tspan> <tspan font-family="Roboto" font-size="10" font-weight="400" x="0" y="64">low latency use cases on </tspan> <tspan font-family="Roboto" font-size="10" font-weight="400" x="0" y="75">memory-constrained devices.</tspan></text></g><g><circle cx="231" cy="243" r="13" fill="#5086ec"/><text transform="translate(227.5 236)" fill="#fff"><tspan font-family="Roboto" font-size="12" font-weight="400" x="0" y="11">1</tspan></text><g><text transform="translate(259.5 235)" fill="#212121"><tspan font-family="Roboto" font-size="10" font-weight="400" x="0" y="9">Upload images into</tspan> <tspan font-family="Roboto" font-size="10" font-weight="400" x="0" y="20">Google Cloud Storage.</tspan></text></g></g><g><circle cx="693" cy="243" r="13" fill="#5086ec"/><text transform="translate(689.5 236)" fill="#fff"><tspan font-family="Roboto" font-size="12" font-weight="400" x=".131" y="11">3</tspan></text></g><g><text transform="translate(721 235)" fill="#212121"><tspan font-family="Roboto" font-size="10" font-weight="400" x="0" y="9">Use Edge Connect to securely </tspan> <tspan font-family="Roboto" font-size="10" font-weight="400" x="0" y="20">deploy the AutoML model to </tspan> <tspan font-family="Roboto" font-size="10" font-weight="400" x="0" y="31">IoT devices (such as Edge </tspan> <tspan font-family="Roboto" font-size="10" font-weight="400" x="0" y="42">TPUs, GPUs, and mobile </tspan> <tspan font-family="Roboto" font-size="10" font-weight="400" x="0" y="53">devices) and run predictions </tspan> <tspan font-family="Roboto" font-size="10" font-weight="400" x="0" y="64">locally on the device.</tspan></text></g><g><path fill="#fff" d="M471.75 145.284h134.5v56h-134.5z"/><path stroke="#dfdfdf" stroke-linecap="round" stroke-linejoin="round" stroke-width="2" clip-path="url(#b)" d="M471.75 145.284h134.5v56h-134.5z"/><text transform="translate(522.75 159.284)" fill="#212121"><tspan font-family="Roboto" font-size="12" font-weight="400" x="0" y="11">AutoML </tspan> <tspan font-family="Roboto" font-size="12" font-weight="400" x="0" y="25">Vision Edge</tspan></text><g><path d="M515.416 171.998l-5.754-10.006c-.461-.8-1.297-1.286-2.158-1.286h-11.508c-.922 0-1.727.54-2.158 1.285l-5.754 9.986a2.51 2.51 0 0 0 0 2.502l5.754 10.052c.46.798 1.297 1.331 2.157 1.331h11.509c.922 0 1.727-.581 2.158-1.326l5.754-10.006a2.566 2.566 0 0 0 0-2.532" fill="#4285f4"/><path d="M508.313 173.284l-6.563-3.865-6.562 3.865 12.559 12.56c.819-.092 1.523-.63 1.915-1.308l3.615-6.287z" fill="#000" fill-opacity=".07"/><g><path d="M497.649 173.284l4.101-2.871 4.102 2.871-4.102 2.871zm4.101-4.922l-6.562 4.922 6.562 4.922 6.563-4.922z" fill="#fff"/></g><g><path d="M501.754 172.054a1.23 1.23 0 1 1 0 2.46 1.23 1.23 0 0 1 0-2.46" fill="#fff"/></g></g></g><g><path fill="#fff" d="M703.875 145h134.5v56h-134.5z"/><path stroke="#dfdfdf" stroke-linecap="round" stroke-linejoin="round" stroke-width="2" clip-path="url(#c)" d="M703.875 145h134.5v56h-134.5z"/><text transform="translate(754.875 159)" fill="#212121"><tspan font-family="Roboto" font-size="12" font-weight="400" x="0" y="11">Edge </tspan> <tspan font-family="Roboto" font-size="12" font-weight="400" x="0" y="25">Connect</tspan></text><g><path d="M726.613 176.624h-6.738v7.876h28.757v-11.04l-6.327 3.164v-3.164l-6.011 3.1v-3.1l-5.82 3.164v-1.584h-9.554v1.045h6.01v.539zM721.805 174.534l.57-8.921h2.025l.568 8.921z" fill="#5086ec"/><path d="M726.47 161.5l-.615 13.034h3.67l-.682-13.034z" fill="#5086ec"/><path fill="#fff" d="M720.694 181.209h5.947v.539h-5.947zM727.614 181.209h5.947v.539h-5.947zM734.39 181.209h6.234v.539h-6.234zM720.694 182.016h5.947v.539h-5.947zM727.614 182.016h5.947v.539h-5.947zM734.39 182.016h6.234v.539h-6.234z"/></g></g><g><path d="M357 173.577l104.85.12a.5.5 0 1 0 0-1l-104.85-.12a.5.5 0 1 0 0 1zm112.85-.872l-8-.009v1l8 .01zm-4.35-3.151l3.996 4.004v-.707l-4.004 3.996.707.708 4.004-3.996.354-.353-.353-.354-3.995-4.004z" fill="#616161"/></g><g><path d="M218 221.5h143.5a.5.5 0 0 0 0-1H218a.5.5 0 0 0 0 1z" fill="#616161"/></g><g><path d="M449 221.5h180a.5.5 0 0 0 0-1H449a.5.5 0 0 0 0 1z" fill="#616161"/></g><g><path d="M682.25 221.5H860a.5.5 0 0 0 0-1H682.25a.5.5 0 0 0 0 1z" fill="#616161"/></g><g><path d="M606.25 173.702l87.726-.108a.5.5 0 1 0-.002-1l-87.725.108a.5.5 0 1 0 .002 1zm95.724-1.117l-8 .01.002 1 8-.01zm-4.357-3.141l4.005 3.995-.001-.707-3.995 4.004.708.707 3.995-4.005.353-.354-.354-.353-4.005-3.995z" fill="#616161"/></g><g><path d="M289.25 201v20a.5.5 0 0 0 1 0v-20a.5.5 0 0 0-1 0z" fill="#616161"/></g><g><path d="M538.5 201.284V220a.5.5 0 0 0 1 0v-18.716a.5.5 0 1 0-1 0z" fill="#616161"/></g><g><path d="M770.625 201v19a.5.5 0 0 0 1 0v-19a.5.5 0 0 0-1 0z" fill="#616161"/></g></g></svg>