<svg xmlns="http://www.w3.org/2000/svg" viewBox="198 125 769.9 536.8" width="769.9" height="536.8"><defs><clipPath id="a"><path d="M536.381 252.4h141v93.4h-141z"/></clipPath><clipPath id="b"><path d="M536.319 482.644h141v93.4h-141z"/></clipPath><clipPath id="c"><path d="M310.381 145h141v93.4h-141z"/></clipPath><marker orient="auto" overflow="visible" id="d" stroke-miterlimit="10" viewBox="-1 -5 10 10" markerWidth="10" markerHeight="10" color="#616161"><path d="M8 0H0m4-4l4 4-4 4" fill="none" stroke="currentColor"/></marker><clipPath id="e"><path d="M310.881 548.4h141v93.4h-141z"/></clipPath><clipPath id="f"><path d="M806.881 247.4h141v309h-141z"/></clipPath><clipPath id="g"><path d="M336.381 568.4h43v25h-43z"/></clipPath><clipPath id="h"><path d="M379.381 183.4h31v23h-31z"/></clipPath><clipPath id="i"><path d="M381.881 207h26v16h-26z"/></clipPath><clipPath id="j"><path d="M381.881 223h26v8h-26z"/></clipPath></defs><g fill="none"><circle cx="293.381" cy="268.4" r="13" fill="#5086ec"/><text transform="translate(289.881 261.4)" fill="#fff"><tspan font-family="Roboto" font-size="12" font-weight="400" x="0" y="11">1</tspan></text><text transform="translate(313.381 257.4)" fill="#212121"><tspan font-family="Roboto" font-size="10" font-weight="400" x="0" y="9">User uploads image containing apparel </tspan> <tspan font-family="Roboto" font-size="10" font-weight="400" x="0" y="20">and homegoods and views detected </tspan> <tspan font-family="Roboto" font-size="10" font-weight="400" x="0" y="31">regions of interest</tspan></text><circle cx="549.381" cy="211.4" r="13" fill="#5086ec"/><text transform="translate(545.881 204.4)" fill="#fff"><tspan font-family="Roboto" font-size="12" font-weight="400" x="0" y="11">2</tspan></text><text transform="translate(569.381 200.4)" fill="#212121"><tspan font-family="Roboto" font-size="10" font-weight="400" x="0" y="9">Object Localizer returns </tspan> <tspan font-family="Roboto" font-size="10" font-weight="400" x="0" y="20">labels and bounding boxes </tspan> <tspan font-family="Roboto" font-size="10" font-weight="400" x="0" y="31">for detected objects</tspan></text><circle cx="293.381" cy="493.4" r="13" fill="#5086ec"/><text transform="translate(289.881 486.4)" fill="#fff"><tspan font-family="Roboto" font-size="12" font-weight="400" x="0" y="11">3</tspan></text><text transform="translate(313.381 482.4)" fill="#212121"><tspan font-family="Roboto" font-size="10" font-weight="400" x="0" y="9">User initiates product search using </tspan> <tspan font-family="Roboto" font-size="10" font-weight="400" x="0" y="20">selected image region(s) and views </tspan> <tspan font-family="Roboto" font-size="10" font-weight="400" x="0" y="31">matching products</tspan></text><circle cx="549.381" cy="417.4" r="13" fill="#5086ec"/><text transform="translate(545.881 410.4)" fill="#fff"><tspan font-family="Roboto" font-size="12" font-weight="400" x="0" y="11">4</tspan></text><text transform="translate(569.381 406.4)" fill="#212121"><tspan font-family="Roboto" font-size="10" font-weight="400" x="0" y="9">Product Search uses image </tspan> <tspan font-family="Roboto" font-size="10" font-weight="400" x="0" y="20">and specific region(s) or </tspan> <tspan font-family="Roboto" font-size="10" font-weight="400" x="0" y="31">largest object of interest to </tspan> <tspan font-family="Roboto" font-size="10" font-weight="400" x="0" y="42">return matching items from </tspan> <tspan font-family="Roboto" font-size="10" font-weight="400" x="0" y="53">product sets </tspan></text><path fill="#fff" d="M536.381 252.4h141v93.4h-141z"/><path stroke="#dfdfdf" stroke-linecap="round" stroke-linejoin="round" stroke-width="2" clip-path="url(#a)" d="M536.381 252.4h141v93.4h-141z"/><path d="M580.047 279.114l-5.754-10.006c-.461-.8-1.297-1.286-2.157-1.286h-11.509c-.922 0-1.727.54-2.158 1.285l-5.754 9.986a2.51 2.51 0 0 0 0 2.502l5.754 10.052c.461.798 1.297 1.331 2.158 1.331h11.508c.922 0 1.727-.581 2.158-1.326l5.754-10.006a2.566 2.566 0 0 0 0-2.532" fill="#4285f4"/><path d="M572.944 280.4l-6.563-3.865-6.562 3.865 12.559 12.56c.819-.093 1.523-.63 1.915-1.308l3.615-6.287z" fill="#000" fill-opacity=".07"/><g><path d="M562.28 280.4l4.101-2.871 4.102 2.871-4.102 2.871zm4.101-4.922l-6.562 4.922 6.562 4.922 6.563-4.922z" fill="#fff"/></g><g><path d="M566.385 279.17a1.23 1.23 0 1 1 0 2.46 1.23 1.23 0 0 1 0-2.46" fill="#fff"/></g><g><path fill="#dfdfdf" d="M552.381 307.525h109v.975h-109z"/></g><g><text transform="translate(552.381 315.525)" fill="#757575"><tspan font-family="Roboto" font-size="10" font-weight="400" x="19.541" y="9">Object Localizer</tspan></text></g><g><text transform="translate(589.381 273.4)" fill="#212121"><tspan font-family="Roboto" font-size="12" font-weight="400" x="0" y="11">Vision API</tspan></text></g><g><path fill="#fff" d="M536.319 482.644h141v93.4h-141z"/><path stroke="#dfdfdf" stroke-linecap="round" stroke-linejoin="round" stroke-width="2" clip-path="url(#b)" d="M536.319 482.644h141v93.4h-141z"/><path d="M579.985 509.358l-5.754-10.006c-.462-.799-1.298-1.286-2.158-1.286h-11.508c-.922 0-1.727.54-2.158 1.285l-5.754 9.987a2.51 2.51 0 0 0 0 2.501l5.753 10.052c.462.799 1.298 1.332 2.158 1.332h11.508c.923 0 1.728-.582 2.158-1.326l5.754-10.007a2.566 2.566 0 0 0 0-2.532" fill="#4285f4"/><path d="M572.881 510.644l-6.562-3.864-6.563 3.864 12.56 12.56c.818-.092 1.522-.63 1.914-1.307l3.616-6.288z" fill="#000" fill-opacity=".07"/><g><path d="M562.217 510.644l4.102-2.87 4.101 2.87-4.101 2.871zm4.102-4.921l-6.563 4.921 6.563 4.922 6.562-4.922z" fill="#fff"/></g><g><path d="M566.322 509.414a1.23 1.23 0 1 1 0 2.46 1.23 1.23 0 0 1 0-2.46" fill="#fff"/></g><g><path fill="#dfdfdf" d="M552.319 537.769h109v.975h-109z"/></g><g><text transform="translate(552.319 545.77)" fill="#757575"><tspan font-family="Roboto" font-size="10" font-weight="400" x="21.169" y="9">Product Search</tspan></text></g><g><text transform="translate(589.319 503.644)" fill="#212121"><tspan font-family="Roboto" font-size="12" font-weight="400" x="0" y="11">Vision API</tspan></text></g></g><g><text transform="translate(814.381 205.4)" fill="#212121"><tspan font-family="Roboto" font-size="12" font-weight="400" x="0" y="11">Uploaded products </tspan> <tspan font-family="Roboto" font-size="12" font-weight="400" x="0" y="25">and reference images</tspan></text></g><g><path fill="#fff" d="M310.381 145h141v93.4h-141z"/><path stroke="#dfdfdf" stroke-linecap="round" stroke-linejoin="round" stroke-width="2" clip-path="url(#c)" d="M310.381 145h141v93.4h-141z"/><g><path d="M374.211 167.163c-.212-.424-.55-.72-1.186-1.017-.636-.254-3.348-.89-3.348-.89h-.042l-.085-.932c-.762.55-1.652.847-2.627.932v18.898h-.72v1.483h7.373v-8.983l4.406 8.644 4.322-2.16s-7.838-15.552-8.093-15.975zm-2.16 4.322h-3.73v-1.314h3.73v1.314zM365.482 184.154V165.13c-.932-.212-1.737-.678-2.415-1.314h-.17l-.169 1.483h-.042s-2.712.636-3.348.89c-.678.254-.974.593-1.186 1.017-.212.424-8.05 15.932-8.05 15.932l4.321 2.204 4.407-8.644v8.94h7.372v-1.483zm-1.398-12.67h-3.729v-1.313h3.73z" fill="#747474"/><circle cx="366.627" cy="160.214" r="3.814" fill="#747474"/><path d="M367.559 187.205H360.228V206.4h4.492v-14.746h2.839V206.4h4.491v-19.195h-1.864z" fill="#747474"/><g><path d="M403.23 187.163c-.212-.424-.551-.72-1.187-1.017-.635-.254-3.347-.89-3.347-.89h-.043l-.084-.932c-.763.55-1.653.847-2.627.932v18.898h-.72v1.483h7.372v-8.983l4.407 8.644 4.322-2.16s-7.839-15.552-8.093-15.975zm-2.161 4.322h-3.73v-1.314h3.73v1.314zM394.5 204.154V185.13c-.931-.212-1.736-.678-2.414-1.314h-.17l-.17 1.483h-.042s-2.712.636-3.347.89c-.678.254-.975.593-1.187 1.017-.211.424-8.05 15.932-8.05 15.932l4.322 2.204 4.406-8.644v8.94h7.373v-1.483zm-1.397-12.67h-3.73v-1.313h3.73z" fill="#747474"/><circle cx="395.645" cy="180.214" r="3.814" fill="#747474"/><path d="M396.577 207.205h-7.33V226.4h4.491v-14.746h2.84V226.4h4.49v-19.195h-1.864z" fill="#747474"/></g><g><path marker-end="url(#d)" stroke="#616161" stroke-linecap="round" stroke-linejoin="round" d="M367.527 222.4h1.954"/></g><g><path stroke="#616161" stroke-linecap="round" stroke-linejoin="round" d="M367.527 208.493V222.4"/></g></g></g><g><path fill="#fff" d="M310.881 548.4h141v93.4h-141z"/><path stroke="#dfdfdf" stroke-linecap="round" stroke-linejoin="round" stroke-width="2" clip-path="url(#e)" d="M310.881 548.4h141v93.4h-141z"/><g><path d="M407.934 601.359c-.886-.333-4.984-1.33-4.984-1.33l-.221-2.214h-3.987V628.6h-1.107v2.215h11.295v-13.62l6.645 13.066 6.533-3.322s-11.849-23.476-12.181-24.14c-.332-.665-.997-.997-1.993-1.44zm-1.44 7.973h-5.648v-1.883h5.648z" fill="#212121"/><path d="M385.454 602.909c-.332.554-12.181 24.03-12.181 24.03l6.533 3.322 6.644-13.067v13.62h11.185V628.6h-1.107V597.815h-3.876l-.222 2.215s-4.097.996-5.094 1.329c-.996.442-1.55.885-1.882 1.55zm3.322 4.54h5.648v1.993h-5.648z" fill="#212121"/><path d="M365.697 570.578c-.212-.424-.551-.72-1.187-1.017-.635-.255-3.347-.89-3.347-.89h-.043l-.084-.932c-.763.55-1.653.847-2.627.932v18.898h-.72v1.483h7.372v-8.983l4.407 8.644 4.322-2.16s-7.84-15.552-8.093-15.975zm-2.161 4.322h-3.73v-1.314h3.73v1.314zM356.968 587.57v-19.026c-.932-.212-1.737-.678-2.415-1.314h-.17l-.17 1.483h-.042s-2.712.636-3.347.89c-.678.254-.975.593-1.187 1.017-.212.424-8.05 15.932-8.05 15.932l4.322 2.204 4.406-8.644v8.94h7.373v-1.483zm-1.398-12.67h-3.73v-1.314h3.73z" fill="#747474"/><circle cx="358.112" cy="563.629" r="3.814" fill="#747474"/><path d="M359.044 590.62h-7.33v19.195h4.491v-14.746h2.84v14.746h4.49V590.62h-1.864z" fill="#747474"/><g><path marker-end="url(#d)" stroke="#616161" stroke-linecap="round" stroke-linejoin="round" d="M357.79 625.815h4.733"/></g><g><path stroke="#616161" stroke-linecap="round" stroke-linejoin="round" d="M357.79 611.908v13.907"/></g></g></g><g><path fill="#fff" d="M806.881 247.4h141v309h-141z"/><path stroke="#dfdfdf" stroke-linecap="round" stroke-linejoin="round" stroke-width="2" clip-path="url(#f)" d="M806.881 247.4h141v309h-141z"/><path fill="#dfdfdf" d="M822.881 302.525h109v.975h-109z"/><g><text transform="translate(859.881 268.4)" fill="#212121"><tspan font-family="Roboto" font-size="12" font-weight="400" x="0" y="11">Cloud Storage</tspan></text></g><g><path d="M850.547 274.536l-5.754-10.006c-.461-.8-1.297-1.286-2.157-1.286h-11.509c-.922 0-1.727.54-2.158 1.285l-5.754 9.986a2.51 2.51 0 0 0 0 2.502l5.754 10.051c.461.8 1.297 1.332 2.158 1.332h11.508c.922 0 1.727-.581 2.158-1.326l5.754-10.006a2.566 2.566 0 0 0 0-2.532" fill="#4285f4"/><path d="M841.582 272.88l-7.914.727-1.533 1.529 1.303 1.304-1.29 2.29 9.67 9.67h.817c.922 0 1.727-.581 2.158-1.326l4.01-6.973z" fill="#000" fill-opacity=".07"/><g><path d="M840.005 274.563a.543.543 0 0 1 0-1.085.542.542 0 1 1 0 1.085m1.404-1.745h-9.064a.266.266 0 0 0-.265.266v1.874c0 .145.12.265.265.265h9.064c.146 0 .265-.12.265-.265v-1.874a.266.266 0 0 0-.265-.266" fill="#fff"/></g><g><path d="M840.005 278.165a.541.541 0 1 1-.001-1.085.541.541 0 0 1 .001 1.085m1.404-1.745l-9.064.001a.266.266 0 0 0-.265.265v1.874c0 .145.12.265.265.265h9.064c.146 0 .265-.12.265-.265v-1.874a.266.266 0 0 0-.265-.266" fill="#fff"/></g></g></g><g><path d="M677.319 529.344h64.78V401.9h64.782" stroke="#616161" stroke-linecap="round" stroke-linejoin="round" stroke-dasharray="1.0,4.0"/></g><g><path fill="#fff" d="M823.979 417.4h108v25h-108z"/><text transform="translate(823.98 422.9)" fill="#212121"><tspan font-family="Roboto" font-size="12" font-weight="400" x="14.068" y="11">Green_stilettos</tspan></text><g><path d="M869.062 417.4H867.7s-.21-10.477-1.048-12.782c-.838-2.305-2.514-5.03-1.467-7.963 1.048-2.934 3.982-4.61 4.296-4.191.42.419 2.934 3.143 6.496 3.981 3.562.838 4.296 1.257 4.4 1.781.21.524 2.096 5.553 1.572 5.868-.524.21-6.496 2.514-6.496 2.514l1.781 2.096s5.449-.943 6.915-.734c1.467.21 2.725 1.781 3.668 2.096.524.733.419 3.353.419 3.353s2.514-.524 2.724-.105c.21.419.314 2.095-.524 2.41-.838.314-4.715 1.466-5.972 1.571-1.362.105-5.868.21-7.125-2.41-1.257-2.619-2.829-9.01-7.648-10.058l-.629 12.573zm10.687-15.82c.21-.63-1.467-1.677-3.143-1.992-1.781-.21-4.715-2.305-6.287-2.933-1.571-.629-2.095 3.248-1.466 4.4.314.524 3.562 3.248 3.562 3.248s4.715-1.886 7.334-2.724zm2.41 11.21c-.21.733 1.78 0 1.78 0l.42-2.096c0-.104-1.99 1.363-2.2 2.096z" fill="#34a853"/></g></g><g><path fill="#fff" d="M822.673 495.4h108v25h-108z"/><text transform="translate(822.673 500.9)" fill="#212121"><tspan font-family="Roboto" font-size="12" font-weight="400" x="9.727" y="11">Yellow_sneakers</tspan></text><g><path d="M868.466 492.79c.717-.308 5.247-2.663 10.033-5.299l-7.243-2.099a.422.422 0 0 1-.282-.537.422.422 0 0 1 .538-.282l8.062 2.33a237.792 237.792 0 0 0 3.686-2.074l-10.29-2.969a.422.422 0 0 1-.28-.537.422.422 0 0 1 .537-.282l11.082 3.2c3.097-1.792 5.606-3.328 6.245-3.993 1.971-1.971-4.044-8.37-5.503-9.342-1.433-.999-2.61-.359-2.431.537.18.896 1.536 3.328-1.254 5.324s-8.958-.666-10.085 0c-1.535.896-3.788 7.755-5.502 10.545-4.326 2.048-4.966 3.148-4.787 4.582.18 1.433 2.355 1.612 2.355 1.612s3.583-.077 5.119-.717z" fill="#fbbc04"/><path d="M892.295 481.348a.661.661 0 0 0-.896-.23c-.18.102-18.991 11.236-21.858 12.209-2.816.947-6.936.768-6.988.768a.62.62 0 0 0-.665.614.62.62 0 0 0 .614.665c.052 0 .359.026.845.026.512 0 1.229-.026 2.022-.077 0 0 .307 0 .691-.051.435-.051.64-.077.64-.077 1.075-.128 2.201-.332 3.2-.665a4.62 4.62 0 0 0 .741-.307s.205-.077.717-.308c.384-.179.333-.179.487-.255 2.943-1.485 8.113-4.403 12.49-6.937 0 0 .256-.128.588-.307.333-.179.538-.333.59-.358 1.176-.691 2.277-1.331 3.224-1.894.103-.051.333-.154.64-.358.333-.205.23-.128.486-.308 1.203-.716 1.997-1.177 2.15-1.28a.604.604 0 0 0 .282-.87z" fill="#fbbc04"/></g></g><g><path fill="#fff" d="M823.381 341.9h108v25h-108z"/><text transform="translate(823.381 347.4)" fill="#212121"><tspan font-family="Roboto" font-size="12" font-weight="400" x="15.19" y="11">Leather_jacket</tspan></text><g><path d="M883.674 323.305c-.544-.204-3.062-.817-3.062-.817l-.136-1.36h-2.449v18.911h-.68v1.361h6.939v-8.367l4.082 8.027 4.013-2.041s-7.279-14.422-7.483-14.83c-.204-.408-.612-.612-1.224-.884zm-.885 4.898h-3.47v-1.157h3.47zM869.864 324.257c-.204.34-7.483 14.762-7.483 14.762l4.014 2.04 4.081-8.026v8.367H877.347v-1.36h-.68v-18.913h-2.381l-.136 1.361s-2.517.613-3.13.817c-.612.272-.952.544-1.156.952zm2.041 2.79h3.47v1.224h-3.47z" fill="#212121"/></g></g><g><path d="M336.381 568.4h43v25h-43z" stroke="#4285f4" stroke-linecap="round" stroke-linejoin="round" stroke-dasharray="4.0,4.0" stroke-width="2" clip-path="url(#g)"/></g><g><path d="M379.381 183.4h31v23h-31z" stroke="#4285f4" stroke-linecap="round" stroke-linejoin="round" stroke-dasharray="4.0,4.0" stroke-width="2" clip-path="url(#h)"/></g><g><path d="M240.927 275.4h-17.454c-3.01 0-5.454 2.455-5.454 5.48v37.257c0 3.024 2.443 5.479 5.454 5.479h17.454c3.01 0 5.454-2.455 5.454-5.48V280.88c0-3.024-2.443-5.479-5.454-5.479zm3.428 42.125h-24.31v-37.05h24.31z" fill="#747474"/></g><g><path d="M381.881 207h26v16h-26z" stroke="#ea4335" stroke-linecap="round" stroke-linejoin="round" stroke-dasharray="4.0,4.0" stroke-width="2" clip-path="url(#i)"/></g><g><path d="M381.881 223h26v8h-26z" stroke="#fbbc04" stroke-linecap="round" stroke-linejoin="round" stroke-dasharray="4.0,4.0" stroke-width="2" clip-path="url(#j)"/></g><g><path d="M256.281 300.9H526.42a.5.5 0 0 0 0-1H256.28a.5.5 0 1 0 0 1zm278.138-1h-8v1h8zm-4.354-3.146l4 4v-.708l-4 4 .707.708 4-4 .354-.354-.354-.354-4-4zM248.281 300.9h8v-1h-8zm4.354 3.146l-4-4v.708l4-4-.707-.708-4 4-.354.354.354.354 4 4z" fill="#616161"/></g><g><path d="M231.7 333.516V531.4a.5.5 0 0 0 .503.5l294.219-1.698a.5.5 0 1 0-.006-1L232.197 530.9l.503.5V333.516a.5.5 0 1 0-1 0zm302.716 195.64l-8 .046.006 1 8-.047zm-4.372-3.122l4.023 3.977-.004-.707-3.977 4.023.711.703 3.977-4.023.352-.356-.356-.351-4.023-3.977zM231.7 325.516v8h1v-8zm-3.146 4.353l4-4h-.708l4 4 .708-.707-4-4-.354-.353-.354.353-4 4z" fill="#616161"/></g></g></svg>